<svg width="300" height="450" xmlns="http://www.w3.org/2000/svg">
  <rect width="100%" height="100%" fill="#f8f9fa"/>
  
  <!-- Film strip design -->
  <rect y="0" width="100%" height="30" fill="#e9ecef"/>
  <rect y="60" width="100%" height="30" fill="#e9ecef"/>
  <rect y="120" width="100%" height="30" fill="#e9ecef"/>
  <rect y="180" width="100%" height="30" fill="#e9ecef"/>
  <rect y="240" width="100%" height="30" fill="#e9ecef"/>
  <rect y="300" width="100%" height="30" fill="#e9ecef"/>
  <rect y="360" width="100%" height="30" fill="#e9ecef"/>
  <rect y="420" width="100%" height="30" fill="#e9ecef"/>
  
  <!-- Film holes -->
  <circle cx="20" cy="15" r="8" fill="#dee2e6"/>
  <circle cx="20" cy="75" r="8" fill="#dee2e6"/>
  <circle cx="20" cy="135" r="8" fill="#dee2e6"/>
  <circle cx="20" cy="195" r="8" fill="#dee2e6"/>
  <circle cx="20" cy="255" r="8" fill="#dee2e6"/>
  <circle cx="20" cy="315" r="8" fill="#dee2e6"/>
  <circle cx="20" cy="375" r="8" fill="#dee2e6"/>
  <circle cx="20" cy="435" r="8" fill="#dee2e6"/>
  
  <circle cx="280" cy="15" r="8" fill="#dee2e6"/>
  <circle cx="280" cy="75" r="8" fill="#dee2e6"/>
  <circle cx="280" cy="135" r="8" fill="#dee2e6"/>
  <circle cx="280" cy="195" r="8" fill="#dee2e6"/>
  <circle cx="280" cy="255" r="8" fill="#dee2e6"/>
  <circle cx="280" cy="315" r="8" fill="#dee2e6"/>
  <circle cx="280" cy="375" r="8" fill="#dee2e6"/>
  <circle cx="280" cy="435" r="8" fill="#dee2e6"/>
  
  <!-- Movie icon -->
  <path d="M150 170 C150 135, 185 135, 185 170 C185 205, 150 205, 150 170 Z" fill="#adb5bd" stroke="#6c757d" stroke-width="5"/>
  <rect x="122" y="195" width="56" height="40" rx="5" fill="#adb5bd" stroke="#6c757d" stroke-width="5"/>
  <circle cx="150" cy="215" r="10" fill="#e9ecef"/>
  
  <!-- Text -->
  <text x="150" y="270" text-anchor="middle" font-family="Arial, sans-serif" font-size="16" fill="#6c757d">無法顯示海報</text>
  <text x="150" y="295" text-anchor="middle" font-family="Arial, sans-serif" font-size="14" fill="#6c757d">No Poster Available</text>
</svg> 